<?xml version="1.0" standalone="no"?>
<!DOCTYPE svg PUBLIC "-//W3C//DTD SVG 20010904//EN"
 "http://www.w3.org/TR/2001/REC-SVG-20010904/DTD/svg10.dtd">
<svg
    width="512"
    height="512"
    viewBox="0 0 135.46667 135.46667"
    version="1.1"
    preserveAspectRatio="xMidYMid meet"
    xmlns="http://www.w3.org/2000/svg">
    <style>
		path {
			fill: #111111;
		}
		@media ( prefers-color-scheme: dark ) {
			path {
				fill: #bbbbbb;
			}
		}
	</style>
    <g transform="matrix(0.88143829,0,0,1,-3.147942,0)">
        <path
            d="m 36.83156,100.6323 q -3.038912,1.67664 -8.016438,1.67664 -14.094261,0 -14.094261,-15.718505 V 54.839053 H 5.4993378 V 47.50375 H 14.720861 V 34.404995 l 8.592784,-2.776936 V 47.50375 H 36.83156 v 7.335303 H 23.313645 v 30.231926 q 0,5.396687 1.833825,7.702068 1.833826,2.305381 6.077822,2.305381 3.248492,0 5.606268,-1.781431 z"/>
        <path
            d="M 87.382533,101.15625 H 78.78975 v -8.487993 h -0.20958 q -5.344292,9.745473 -16.556827,9.745473 -19.176577,0 -19.176577,-22.844228 V 47.50375 h 8.540389 v 30.703481 q 0,16.975987 12.993964,16.975987 6.287403,0 10.321819,-4.610762 4.086812,-4.663157 4.086812,-12.155645 V 47.50375 h 8.592783 z"/>
        <path
            d="m 155.06796,101.15625 h -8.59279 V 70.347978 q 0,-8.907153 -2.77693,-12.889174 -2.72454,-3.982022 -9.22152,-3.982022 -5.50148,0 -9.37871,5.029922 -3.82484,5.029922 -3.82484,12.050855 v 30.598691 h -8.59278 V 69.300078 q 0,-15.823296 -12.20804,-15.823296 -5.658658,0 -9.326318,4.767947 -3.66765,4.715552 -3.66765,12.31283 v 30.598691 h -8.59278 v -53.6525 h 8.59278 v 8.487993 h 0.20958 q 5.71106,-9.745474 16.661618,-9.745474 5.50148,0 9.58829,3.091307 4.08681,3.038911 5.60626,8.016438 5.97304,-11.107745 17.81431,-11.107745 17.70952,0 17.70952,21.848724 z"/>
    </g>
</svg>
