<?xml version="1.0" standalone="no"?>
<!DOCTYPE svg PUBLIC "-//W3C//DTD SVG 20010904//EN"
 "http://www.w3.org/TR/2001/REC-SVG-20010904/DTD/svg10.dtd">
<svg version="1.0" xmlns="http://www.w3.org/2000/svg"
 width="700.000000pt" height="700.000000pt" viewBox="0 0 700.000000 700.000000"
 preserveAspectRatio="xMidYMid meet">
<metadata>
Created by potrace 1.14, written by Peter Selinger 2001-2017
</metadata>
<g transform="translate(0.000000,700.000000) scale(0.100000,-0.100000)"
fill="#000000" stroke="none">
<path d="M693 5292 l-183 -67 0 -145 c-1 -80 -2 -233 -3 -340 l-2 -195 -207 1
-208 0 -1 -48 c-1 -60 -1 -91 0 -225 l1 -108 209 1 210 0 0 -890 c0 -490 3
-902 5 -916 3 -14 7 -46 10 -71 3 -26 8 -53 11 -60 2 -8 6 -25 9 -39 25 -147
135 -314 252 -386 148 -91 376 -116 579 -63 49 13 135 49 136 58 4 21 3 371
-1 369 -3 -2 -34 -18 -70 -35 -108 -54 -241 -59 -348 -13 -85 37 -136 107
-168 230 -18 71 -19 121 -19 945 l0 870 300 1 c165 1 302 2 305 3 4 1 5 334 1
366 -1 7 -104 11 -306 10 l-305 0 0 408 c0 319 -3 407 -12 406 -7 -1 -95 -31
-195 -67z"/>
<path d="M4407 4590 c-216 -45 -421 -204 -539 -420 -18 -33 -36 -60 -40 -60
-3 0 -6 91 -6 203 -1 111 -1 210 -1 219 -1 15 -20 17 -196 17 -147 0 -195 -2
-196 -12 -1 -6 -2 -392 -3 -857 -1 -465 -6 -872 -10 -905 -24 -185 -94 -357
-196 -478 -127 -152 -278 -218 -480 -212 -342 11 -530 260 -556 736 -4 58 -7
470 -8 915 l-1 809 -193 0 -193 1 4 -961 c2 -528 6 -973 10 -990 3 -16 8 -48
11 -70 45 -353 220 -634 461 -740 22 -9 49 -21 60 -26 99 -44 372 -62 508 -33
89 19 184 57 257 105 106 69 239 222 296 341 10 21 21 38 24 38 4 0 6 -98 6
-217 l-1 -218 198 -3 197 -2 1 22 c0 13 1 392 1 843 1 451 5 856 10 900 38
341 217 615 443 681 97 27 240 23 335 -11 177 -63 290 -229 335 -492 23 -136
24 -156 24 -1079 l1 -862 195 0 195 0 0 117 c1 738 8 1642 13 1664 4 15 9 37
11 50 21 121 95 296 163 390 115 158 242 234 400 241 194 8 356 -69 437 -206
29 -49 72 -159 79 -203 3 -17 10 -55 17 -85 10 -54 18 -125 25 -225 2 -27 3
-431 4 -897 l1 -846 196 0 195 1 -4 986 c-2 542 -6 997 -10 1010 -3 12 -9 43
-12 68 -9 81 -47 226 -81 311 -103 253 -272 397 -529 448 -93 18 -298 12 -385
-11 -235 -62 -429 -228 -561 -479 l-37 -69 -17 54 c-57 173 -168 319 -315 414
-153 99 -337 127 -543 85z"/>
</g>
</svg>
